<svg xmlns="http://www.w3.org/2000/svg" viewBox="0 0 320 320" width="320" height="320">
<!-- fix symmetry orbit tile for doc/src/fix_symmetry.rst -->
<!-- Generated by plans/symmetry-figure/gen_orbit_panels.py -->
<!-- Rasterize to ../JPG/fix-symmetry-orbit-NAME.png with inkscape: -->
<!-- export-type=png export-area-page export-width=600 export-background-opacity=0 -->
<defs><radialGradient id="atom" cx="35%" cy="30%" r="75%"><stop offset="0%" stop-color="#c3d3e6"/><stop offset="45%" stop-color="#5b7fa6"/><stop offset="100%" stop-color="#2c3f57"/></radialGradient><radialGradient id="atomA" cx="35%" cy="30%" r="75%"><stop offset="0%" stop-color="#ffdca8"/><stop offset="45%" stop-color="#e0912f"/><stop offset="100%" stop-color="#7d4409"/></radialGradient><linearGradient id="arrowgrad" x1="0" y1="0" x2="0" y2="1"><stop offset="0%" stop-color="#4aa5bd"/><stop offset="45%" stop-color="#1c7084"/><stop offset="100%" stop-color="#0c3a47"/></linearGradient><filter id="drop" x="-40%" y="-40%" width="180%" height="180%"><feGaussianBlur in="SourceAlpha" stdDeviation="2.4"/><feOffset dx="1.5" dy="2.6" result="o"/><feFlood flood-color="#000000" flood-opacity="0.28"/><feComposite in2="o" operator="in"/><feMerge><feMergeNode/><feMergeNode in="SourceGraphic"/></feMerge></filter></defs>
<polygon points="166.7,153.3 166.7,166.7 153.3,166.7 153.3,153.3" fill="#333333"/>
<circle cx="160.0" cy="96.0" r="27" fill="url(#atom)" stroke="#243546" stroke-width="1" filter="url(#drop)"/><ellipse cx="152.0" cy="87.0" rx="8" ry="5.5" fill="#ffffff" opacity="0.55"/><text x="160.0" y="102.0" text-anchor="middle" font-family="DejaVu Sans, sans-serif" font-size="18" font-weight="bold" fill="#0e1a24">B</text>
<circle cx="96.0" cy="160.0" r="27" fill="url(#atom)" stroke="#243546" stroke-width="1" filter="url(#drop)"/><ellipse cx="88.0" cy="151.0" rx="8" ry="5.5" fill="#ffffff" opacity="0.55"/><text x="96.0" y="166.0" text-anchor="middle" font-family="DejaVu Sans, sans-serif" font-size="18" font-weight="bold" fill="#0e1a24">C</text>
<circle cx="160.0" cy="224.0" r="27" fill="url(#atom)" stroke="#243546" stroke-width="1" filter="url(#drop)"/><ellipse cx="152.0" cy="215.0" rx="8" ry="5.5" fill="#ffffff" opacity="0.55"/><text x="160.0" y="230.0" text-anchor="middle" font-family="DejaVu Sans, sans-serif" font-size="18" font-weight="bold" fill="#0e1a24">D</text>
<circle cx="224.0" cy="160.0" r="27" fill="url(#atomA)" stroke="#5a3406" stroke-width="1" filter="url(#drop)"/><ellipse cx="216.0" cy="151.0" rx="8" ry="5.5" fill="#ffffff" opacity="0.55"/><text x="224.0" y="166.0" text-anchor="middle" font-family="DejaVu Sans, sans-serif" font-size="18" font-weight="bold" fill="#0e1a24">A</text>
<g transform="translate(224.0,131.0) rotate(-90.0)" filter="url(#drop)"><path d="M0,4.0 L33.0,4.0 L33.0,10.5 L48,0 L33.0,-10.5 L33.0,-4.0 L0,-4.0 Z" fill="url(#arrowgrad)" stroke="#111111" stroke-width="1.2" stroke-linejoin="round"/><line x1="2" y1="-2.8" x2="33.0" y2="-2.8" stroke="#a9e0ec" stroke-width="1.3" opacity="0.75"/></g>
<g transform="translate(131.0,96.0) rotate(-180.0)" filter="url(#drop)"><path d="M0,4.0 L33.0,4.0 L33.0,10.5 L48,0 L33.0,-10.5 L33.0,-4.0 L0,-4.0 Z" fill="url(#arrowgrad)" stroke="#111111" stroke-width="1.2" stroke-linejoin="round"/><line x1="2" y1="-2.8" x2="33.0" y2="-2.8" stroke="#a9e0ec" stroke-width="1.3" opacity="0.75"/></g>
<g transform="translate(96.0,189.0) rotate(90.0)" filter="url(#drop)"><path d="M0,4.0 L33.0,4.0 L33.0,10.5 L48,0 L33.0,-10.5 L33.0,-4.0 L0,-4.0 Z" fill="url(#arrowgrad)" stroke="#111111" stroke-width="1.2" stroke-linejoin="round"/><line x1="2" y1="-2.8" x2="33.0" y2="-2.8" stroke="#a9e0ec" stroke-width="1.3" opacity="0.75"/></g>
<g transform="translate(189.0,224.0) rotate(0.0)" filter="url(#drop)"><path d="M0,4.0 L33.0,4.0 L33.0,10.5 L48,0 L33.0,-10.5 L33.0,-4.0 L0,-4.0 Z" fill="url(#arrowgrad)" stroke="#111111" stroke-width="1.2" stroke-linejoin="round"/><line x1="2" y1="-2.8" x2="33.0" y2="-2.8" stroke="#a9e0ec" stroke-width="1.3" opacity="0.75"/></g>
</svg>
