<svg xmlns="http://www.w3.org/2000/svg"
     width="1000" height="656" viewBox="0 0 1000 656">
<!--
  Chart for doc/src/Speed_measure.rst, generated by
  plans/speed-measure-charts/gen_charts.py (regenerate + edit there).
  Rasterize from doc/src/SVG/ with:
    inkscape &#45;&#45;export-type=png &#45;&#45;export-area-drawing
      &#45;&#45;export-margin=10 &#45;&#45;export-width=1600
      &#45;&#45;export-background-opacity=0
      -o ../JPG/speed-vs-size.png speed-vs-size.svg
-->
<defs>
  <filter id="chipshadow" x="-20%" y="-20%" width="140%" height="140%">
    <feGaussianBlur in="SourceAlpha" stdDeviation="2.5"/>
    <feOffset dx="1.5" dy="2.5" result="off"/>
    <feFlood flood-color="#000000" flood-opacity="0.22"/>
    <feComposite in2="off" operator="in" result="shadow"/>
    <feMerge>
      <feMergeNode in="shadow"/>
      <feMergeNode in="SourceGraphic"/>
    </feMerge>
  </filter>
</defs>
<style>
  text { font-family: 'DejaVu Sans', 'Helvetica', sans-serif; }
  .tick { font-size: 17px; fill: #555555; }
  .val  { font-size: 15px; fill: #555555; }
  .axt  { font-size: 19px; fill: #333333; }
  .leg  { font-size: 17px; fill: #333333; }
  .note { font-size: 16px; fill: #777777; }
</style>

<line x1="100" y1="576.0" x2="970" y2="576.0" stroke="#e3e6ea" stroke-width="1"/>
<text x="90" y="582.0" class="tick" text-anchor="end">0</text>
<line x1="100" y1="485.6" x2="970" y2="485.6" stroke="#e3e6ea" stroke-width="1"/>
<text x="90" y="491.6" class="tick" text-anchor="end">50</text>
<line x1="100" y1="395.2" x2="970" y2="395.2" stroke="#e3e6ea" stroke-width="1"/>
<text x="90" y="401.2" class="tick" text-anchor="end">100</text>
<line x1="100" y1="304.8" x2="970" y2="304.8" stroke="#e3e6ea" stroke-width="1"/>
<text x="90" y="310.8" class="tick" text-anchor="end">150</text>
<line x1="100" y1="214.5" x2="970" y2="214.5" stroke="#e3e6ea" stroke-width="1"/>
<text x="90" y="220.5" class="tick" text-anchor="end">200</text>
<line x1="100" y1="124.1" x2="970" y2="124.1" stroke="#e3e6ea" stroke-width="1"/>
<text x="90" y="130.1" class="tick" text-anchor="end">250</text>
<line x1="100" y1="576" x2="970" y2="576" stroke="#b9bfc7" stroke-width="1.5"/>
<text x="535.0" y="638" class="axt" text-anchor="middle">number of atoms</text>
<text x="26" y="341.0" class="axt" text-anchor="middle" transform="rotate(-90 26 341.0)">performance (katom-step/s)</text>
<path d="M 143.5 576.0 L 143.5 167.4 Q 143.5 162.4 148.5 162.4 L 180.5 162.4 Q 185.5 162.4 185.5 167.4 L 185.5 576.0 Z" fill="#0b7d9d"/>
<text x="164.5" y="154.4" class="val" text-anchor="middle">229</text>
<path d="M 188.5 576.0 L 188.5 183.7 Q 188.5 178.7 193.5 178.7 L 225.5 178.7 Q 230.5 178.7 230.5 183.7 L 230.5 576.0 Z" fill="#b02525"/>
<text x="209.5" y="170.7" class="val" text-anchor="middle">220</text>
<text x="187.0" y="604.0" class="tick" text-anchor="middle">32k</text>
<path d="M 317.5 576.0 L 317.5 162.3 Q 317.5 157.3 322.5 157.3 L 354.5 157.3 Q 359.5 157.3 359.5 162.3 L 359.5 576.0 Z" fill="#0b7d9d"/>
<text x="338.5" y="149.3" class="val" text-anchor="middle">232</text>
<path d="M 362.5 576.0 L 362.5 178.8 Q 362.5 173.8 367.5 173.8 L 399.5 173.8 Q 404.5 173.8 404.5 178.8 L 404.5 576.0 Z" fill="#b02525"/>
<text x="383.5" y="165.8" class="val" text-anchor="middle">222</text>
<text x="361.0" y="604.0" class="tick" text-anchor="middle">64k</text>
<path d="M 491.5 576.0 L 491.5 163.2 Q 491.5 158.2 496.5 158.2 L 528.5 158.2 Q 533.5 158.2 533.5 163.2 L 533.5 576.0 Z" fill="#0b7d9d"/>
<text x="512.5" y="150.2" class="val" text-anchor="middle">231</text>
<path d="M 536.5 576.0 L 536.5 189.1 Q 536.5 184.1 541.5 184.1 L 573.5 184.1 Q 578.5 184.1 578.5 189.1 L 578.5 576.0 Z" fill="#b02525"/>
<text x="557.5" y="176.1" class="val" text-anchor="middle">217</text>
<text x="535.0" y="604.0" class="tick" text-anchor="middle">128k</text>
<path d="M 665.5 576.0 L 665.5 171.7 Q 665.5 166.7 670.5 166.7 L 702.5 166.7 Q 707.5 166.7 707.5 171.7 L 707.5 576.0 Z" fill="#0b7d9d"/>
<text x="686.5" y="158.7" class="val" text-anchor="middle">226</text>
<path d="M 710.5 576.0 L 710.5 181.5 Q 710.5 176.5 715.5 176.5 L 747.5 176.5 Q 752.5 176.5 752.5 181.5 L 752.5 576.0 Z" fill="#b02525"/>
<text x="731.5" y="168.5" class="val" text-anchor="middle">221</text>
<text x="709.0" y="604.0" class="tick" text-anchor="middle">256k</text>
<path d="M 839.5 576.0 L 839.5 166.0 Q 839.5 161.0 844.5 161.0 L 876.5 161.0 Q 881.5 161.0 881.5 166.0 L 881.5 576.0 Z" fill="#0b7d9d"/>
<text x="860.5" y="153.0" class="val" text-anchor="middle">230</text>
<path d="M 884.5 576.0 L 884.5 181.3 Q 884.5 176.3 889.5 176.3 L 921.5 176.3 Q 926.5 176.3 926.5 181.3 L 926.5 576.0 Z" fill="#b02525"/>
<text x="905.5" y="168.3" class="val" text-anchor="middle">221</text>
<text x="883.0" y="604.0" class="tick" text-anchor="middle">864k</text>
<line x1="100" y1="379.0" x2="970" y2="379.0" stroke="#c07600" stroke-width="2.5" stroke-dasharray="8,6"/>
<g filter="url(#chipshadow)"><rect x="304.0" y="16.0" width="462" height="96" rx="9" fill="#ffffff" fill-opacity="0.96" stroke="#cccccc"/></g>
<circle cx="332.0" cy="33" r="7" fill="#0b7d9d"/>
<text x="358.0" y="39" class="leg">AMD Ryzen Threadripper PRO 9985WX (2025)</text>
<circle cx="332.0" cy="61" r="7" fill="#b02525"/>
<text x="358.0" y="67" class="leg">AMD Ryzen 7 7840HS (2023)</text>
<line x1="320.0" y1="89" x2="348.0" y2="89" stroke="#c07600" stroke-width="2.5" stroke-dasharray="8,6"/>
<text x="358.0" y="95" class="leg">Intel Xeon E5-2650 v4 (2016)</text>
</svg>
